<svg width="16" height="16" viewBox="0 0 16 16" fill="none" xmlns="http://www.w3.org/2000/svg">
<path fill-rule="evenodd" clip-rule="evenodd" d="M4.23435 5.83407C4.38437 5.6841 4.58782 5.59985 4.79995 5.59985C5.01208 5.59985 5.21553 5.6841 5.36555 5.83407L7.99995 8.46847L10.6344 5.83407C10.7081 5.75767 10.7964 5.69672 10.894 5.65479C10.9916 5.61287 11.0966 5.5908 11.2028 5.58987C11.3091 5.58895 11.4144 5.60919 11.5127 5.64942C11.611 5.68964 11.7004 5.74904 11.7755 5.82416C11.8506 5.89927 11.91 5.98859 11.9502 6.08691C11.9904 6.18523 12.0107 6.29057 12.0098 6.3968C12.0088 6.50302 11.9868 6.60799 11.9448 6.7056C11.9029 6.8032 11.842 6.89148 11.7656 6.96527L8.56555 10.1653C8.41553 10.3153 8.21208 10.3995 7.99995 10.3995C7.78782 10.3995 7.58437 10.3153 7.43435 10.1653L4.23435 6.96527C4.08437 6.81525 4.00012 6.61181 4.00012 6.39967C4.00012 6.18754 4.08437 5.9841 4.23435 5.83407Z" fill="#868686"/>
</svg>
