<svg width="20" height="20" viewBox="0 0 20 20" fill="none" xmlns="http://www.w3.org/2000/svg">
<circle cx="10" cy="10" r="10" fill="white"/>
<circle cx="10" cy="10" r="10" fill="url(#paint0_linear_164_26)" fill-opacity="0.2"/>
<path fill-rule="evenodd" clip-rule="evenodd" d="M6.23452 8.28015C6.08436 8.1395 6 7.94877 6 7.74989C6 7.55101 6.08436 7.36028 6.23452 7.21963L9.43853 4.21959C9.58874 4.07899 9.79244 4 10.0048 4C10.2172 4 10.4209 4.07899 10.5711 4.21959L13.7751 7.21963C13.9211 7.36109 14.0018 7.55054 14 7.74719C13.9981 7.94384 13.9139 8.13195 13.7654 8.27101C13.6169 8.41007 13.416 8.48895 13.206 8.49066C12.9959 8.49236 12.7936 8.41677 12.6425 8.28015L10.8058 6.56037V15.25C10.8058 15.4489 10.7214 15.6397 10.5712 15.7803C10.421 15.921 10.2173 16 10.0048 16C9.7924 16 9.58866 15.921 9.43844 15.7803C9.28823 15.6397 9.20383 15.4489 9.20383 15.25V6.56037L7.36714 8.28015C7.21693 8.42075 7.01323 8.49974 6.80083 8.49974C6.58843 8.49974 6.38473 8.42075 6.23452 8.28015Z" fill="#87A9DD"/>
<defs>
<linearGradient id="paint0_linear_164_26" x1="10" y1="0" x2="10" y2="20" gradientUnits="userSpaceOnUse">
<stop stop-color="#F5F5F5" stop-opacity="0.4"/>
<stop offset="1" stop-color="#454545"/>
</linearGradient>
</defs>
</svg>
